REM DIRINDEX 1\2\6,1\2\7,1\2\8,1\2\9,1\3\10,1\3\11,1\4\12,1\4\13,1\4\14,1\5\15,1\5\16,1\5\17
REM DIRNAME folder01,folder02,folder03,folder04,folder05,folder06,folder07,folder08,folder09,folder10,folder11,folder12,folder13,folder14,folder15,folder16,folder17
TITLE ""
FILE "1400_2_sec06_0534_0549.mp3" MP3
  TRACK 01 AUDIO
    TITLE "0:"
    INDEX 01 00:00:00
  TRACK 02 AUDIO
    TITLE "13:cjc029_2655"
    INDEX 01 00:00:17
  TRACK 03 AUDIO
    TITLE "0:"
    INDEX 01 00:01:42
  TRACK 04 AUDIO
    TITLE "14:cjc029_2656"
    INDEX 01 00:01:48
  TRACK 05 AUDIO
    TITLE "0:"
    INDEX 01 00:04:21
  TRACK 06 AUDIO
    TITLE "13:cjc029_2657"
    INDEX 01 00:05:03
  TRACK 07 AUDIO
    TITLE "0:"
    INDEX 01 00:06:31
  TRACK 08 AUDIO
    TITLE "14:cjc029_2658"
    INDEX 01 00:06:37
  TRACK 09 AUDIO
    TITLE "0:"
    INDEX 01 00:09:32
  TRACK 10 AUDIO
    TITLE "13:cjc029_2659"
    INDEX 01 00:10:16
  TRACK 11 AUDIO
    TITLE "0:"
    INDEX 01 00:11:17
  TRACK 12 AUDIO
    TITLE "14:cjc029_2660"
    INDEX 01 00:11:19
  TRACK 13 AUDIO
    TITLE "0:"
    INDEX 01 00:15:15
  TRACK 14 AUDIO
    TITLE "13:cjc029_2661"
    INDEX 01 00:15:72
  TRACK 15 AUDIO
    TITLE "0:"
    INDEX 01 00:17:23
  TRACK 16 AUDIO
    TITLE "14:cjc029_2662"
    INDEX 01 00:17:27
  TRACK 17 AUDIO
    TITLE "0:"
    INDEX 01 00:18:62
  TRACK 18 AUDIO
    TITLE "13:cjc029_2663"
    INDEX 01 00:19:44
  TRACK 19 AUDIO
    TITLE "0:"
    INDEX 01 00:20:57
  TRACK 20 AUDIO
    TITLE "14:cjc029_2664"
    INDEX 01 00:20:63
  TRACK 21 AUDIO
    TITLE "0:"
    INDEX 01 00:23:69
  TRACK 22 AUDIO
    TITLE "13:cjc029_2665"
    INDEX 01 00:24:51
  TRACK 23 AUDIO
    TITLE "0:"
    INDEX 01 00:25:54
  TRACK 24 AUDIO
    TITLE "14:cjc029_2666"
    INDEX 01 00:25:58
  TRACK 25 AUDIO
    TITLE "0:"
    INDEX 01 00:26:66
  TRACK 26 AUDIO
    TITLE "13:cjc029_2667"
    INDEX 01 00:27:53
  TRACK 27 AUDIO
    TITLE "0:"
    INDEX 01 00:28:57
  TRACK 28 AUDIO
    TITLE "14:cjc029_2668"
    INDEX 01 00:28:62
  TRACK 29 AUDIO
    TITLE "0:"
    INDEX 01 00:31:12
  TRACK 30 AUDIO
    TITLE "13:cjc029_2669"
    INDEX 01 00:31:67
  TRACK 31 AUDIO
    TITLE "0:"
    INDEX 01 00:33:03
  TRACK 32 AUDIO
    TITLE "14:cjc029_2670"
    INDEX 01 00:33:07
  TRACK 33 AUDIO
    TITLE "0:"
    INDEX 01 00:34:32
  TRACK 34 AUDIO
    TITLE "13:cjc029_2671"
    INDEX 01 00:35:15
  TRACK 35 AUDIO
    TITLE "0:"
    INDEX 01 00:36:42
  TRACK 36 AUDIO
    TITLE "14:cjc029_2672"
    INDEX 01 00:36:46
  TRACK 37 AUDIO
    TITLE "0:"
    INDEX 01 00:37:63
  TRACK 38 AUDIO
    TITLE "12:cjc029_2673"
    INDEX 01 00:39:39
  TRACK 39 AUDIO
    TITLE "0:"
    INDEX 01 00:40:68
  TRACK 40 AUDIO
    TITLE "13:cjc029_2674"
    INDEX 01 00:41:71
  TRACK 41 AUDIO
    TITLE "0:"
    INDEX 01 00:43:27
  TRACK 42 AUDIO
    TITLE "14:cjc029_2675"
    INDEX 01 00:43:33
  TRACK 43 AUDIO
    TITLE "0:"
    INDEX 01 00:45:63
  TRACK 44 AUDIO
    TITLE "13:cjc029_2676"
    INDEX 01 00:46:56
  TRACK 45 AUDIO
    TITLE "0:"
    INDEX 01 00:47:54
  TRACK 46 AUDIO
    TITLE "14:cjc029_2677"
    INDEX 01 00:47:60
  TRACK 47 AUDIO
    TITLE "0:"
    INDEX 01 00:50:23
  TRACK 48 AUDIO
    TITLE "13:cjc029_2678"
    INDEX 01 00:51:09
  TRACK 49 AUDIO
    TITLE "0:"
    INDEX 01 00:52:18
  TRACK 50 AUDIO
    TITLE "14:cjc029_2679"
    INDEX 01 00:52:22
  TRACK 51 AUDIO
    TITLE "0:"
    INDEX 01 00:54:32
  TRACK 52 AUDIO
    TITLE "13:cjc029_2680"
    INDEX 01 00:55:12
  TRACK 53 AUDIO
    TITLE "0:"
    INDEX 01 00:56:18
  TRACK 54 AUDIO
    TITLE "14:cjc029_2681"
    INDEX 01 00:56:22
  TRACK 55 AUDIO
    TITLE "0:"
    INDEX 01 00:59:47
  TRACK 56 AUDIO
    TITLE "13:cjc029_2682"
    INDEX 01 01:00:31
  TRACK 57 AUDIO
    TITLE "0:"
    INDEX 01 01:01:60
  TRACK 58 AUDIO
    TITLE "14:cjc029_2683"
    INDEX 01 01:01:64
  TRACK 59 AUDIO
    TITLE "0:"
    INDEX 01 01:03:12
  TRACK 60 AUDIO
    TITLE "13:cjc029_2684"
    INDEX 01 01:03:71
  TRACK 61 AUDIO
    TITLE "0:"
    INDEX 01 01:05:09
  TRACK 62 AUDIO
    TITLE "14:cjc029_2685"
    INDEX 01 01:05:15
  TRACK 63 AUDIO
    TITLE "0:"
    INDEX 01 01:08:74
  TRACK 64 AUDIO
    TITLE "13:cjc029_2686"
    INDEX 01 01:09:56
  TRACK 65 AUDIO
    TITLE "0:"
    INDEX 01 01:10:63
  TRACK 66 AUDIO
    TITLE "14:cjc029_2687"
    INDEX 01 01:10:69
  TRACK 67 AUDIO
    TITLE "0:"
    INDEX 01 01:11:72
